<svg width="33" height="33" viewBox="0 0 33 33" fill="none" xmlns="http://www.w3.org/2000/svg">
<g clip-path="url(#clip0)">
<path d="M32.9082 16.4541C32.9082 7.36674 25.5414 0 16.4541 0C7.36674 0 0 7.36674 0 16.4541C0 24.6667 6.01699 31.4739 13.8831 32.7083V21.2103H9.70534V16.4541H13.8831V12.829C13.8831 8.70524 16.3397 6.42738 20.0981 6.42738C21.8977 6.42738 23.7813 6.74874 23.7813 6.74874V10.798H21.7065C19.6626 10.798 19.025 12.0664 19.025 13.3689V16.4541H23.5885L22.859 21.2103H19.025V32.7083C26.8912 31.4739 32.9082 24.6667 32.9082 16.4541Z" fill="white"/>
</g>
<defs>
<clipPath id="clip0">
<rect width="32.9082" height="32.9082" fill="white"/>
</clipPath>
</defs>
</svg>
