<svg width="33" height="33" viewBox="0 0 33 33" fill="none" xmlns="http://www.w3.org/2000/svg">
<g clip-path="url(#clip0)">
<path d="M30.564 0H2.52134C1.17802 0 0.0917969 1.06052 0.0917969 2.3717V30.53C0.0917969 31.8412 1.17802 32.9082 2.52134 32.9082H30.564C31.9073 32.9082 33 31.8412 33 30.5365V2.3717C33 1.06052 31.9073 0 30.564 0ZM9.85498 28.0426H4.97018V12.3341H9.85498V28.0426ZM7.41258 10.1938C5.8443 10.1938 4.57811 8.92762 4.57811 7.36577C4.57811 5.80392 5.8443 4.53773 7.41258 4.53773C8.97443 4.53773 10.2406 5.80392 10.2406 7.36577C10.2406 8.9212 8.97443 10.1938 7.41258 10.1938ZM28.1344 28.0426H23.2561V20.4069C23.2561 18.588 23.2239 16.242 20.7172 16.242C18.1784 16.242 17.7928 18.228 17.7928 20.2784V28.0426H12.9208V12.3341H17.6V14.4809H17.6642C18.3134 13.2468 19.9074 11.9421 22.2791 11.9421C27.2218 11.9421 28.1344 15.1943 28.1344 19.4235V28.0426Z" fill="white"/>
</g>
<defs>
<clipPath id="clip0">
<rect width="32.9082" height="32.9082" fill="white" transform="translate(0.0917969)"/>
</clipPath>
</defs>
</svg>
