<svg width="34" height="25" viewBox="0 0 34 25" fill="none" xmlns="http://www.w3.org/2000/svg">
<path d="M32.7513 5.87249C32.7513 5.87249 32.4374 3.60363 31.4706 2.60738C30.2464 1.2962 28.8778 1.28977 28.25 1.21264C23.755 0.878418 17.0063 0.878418 17.0063 0.878418H16.9937C16.9937 0.878418 10.245 0.878418 5.75002 1.21264C5.12223 1.28977 3.75364 1.2962 2.52945 2.60738C1.56266 3.60363 1.25504 5.87249 1.25504 5.87249C1.25504 5.87249 0.928589 8.53985 0.928589 11.2008V13.6946C0.928589 16.3555 1.24876 19.0229 1.24876 19.0229C1.24876 19.0229 1.56266 21.2918 2.52318 22.288C3.74737 23.5992 5.35451 23.5542 6.07019 23.6956C8.64413 23.9463 17 24.0234 17 24.0234C17 24.0234 23.755 24.0105 28.25 23.6828C28.8778 23.6056 30.2464 23.5992 31.4706 22.288C32.4374 21.2918 32.7513 19.0229 32.7513 19.0229C32.7513 19.0229 33.0714 16.362 33.0714 13.6946V11.2008C33.0714 8.53985 32.7513 5.87249 32.7513 5.87249ZM13.679 16.7219V7.47291L22.3613 12.1135L13.679 16.7219Z" fill="white"/>
</svg>
