<?xml version="1.0" standalone="no"?>
<!DOCTYPE svg PUBLIC "-//W3C//DTD SVG 20010904//EN"
 "http://www.w3.org/TR/2001/REC-SVG-20010904/DTD/svg10.dtd">
<svg version="1.0" xmlns="http://www.w3.org/2000/svg"
 width="1000.000000pt" height="1000.000000pt" viewBox="0 0 1000.000000 1000.000000"
 preserveAspectRatio="xMidYMid meet">
<metadata>
Created by potrace 1.11, written by Peter Selinger 2001-2013
</metadata>
<g transform="translate(0.000000,1000.000000) scale(0.100000,-0.100000)"
fill="#000000" stroke="none">
<path d="M7237 6734 c-1 -2 -29 -5 -62 -8 -33 -2 -60 -5 -60 -6 0 -1 -27 -7
-62 -14 -7 -1 -16 -5 -19 -9 -4 -4 -15 -7 -24 -7 -29 0 -187 -86 -242 -131
-57 -46 -158 -160 -158 -177 0 -6 -6 -17 -13 -24 -11 -12 -39 -67 -39 -78 0
-3 -5 -14 -11 -25 -6 -11 -12 -24 -14 -30 -1 -5 -7 -28 -13 -50 -29 -111 -31
-253 -6 -370 23 -101 114 -293 145 -303 6 -2 11 -9 11 -15 0 -15 68 -85 151
-157 35 -30 74 -65 87 -77 12 -13 27 -23 31 -23 5 0 14 -7 21 -15 7 -8 67 -56
134 -107 66 -50 128 -99 137 -107 9 -9 31 -27 50 -41 38 -27 265 -253 291
-289 25 -36 62 -113 70 -151 26 -113 -5 -233 -83 -317 -94 -101 -267 -159
-389 -131 -58 14 -64 16 -101 35 -117 59 -232 191 -340 391 -18 34 -37 62 -42
62 -7 0 -319 -184 -357 -210 -8 -6 -22 -15 -30 -20 -12 -8 -11 -14 7 -47 12
-21 32 -58 45 -83 13 -25 29 -51 36 -59 7 -7 22 -31 33 -52 10 -21 24 -39 29
-39 6 0 10 -5 10 -11 0 -25 153 -191 237 -256 22 -18 58 -42 79 -53 22 -12 53
-29 69 -39 17 -9 50 -23 75 -31 25 -7 50 -17 55 -21 6 -4 22 -10 35 -12 14 -3
42 -8 63 -12 311 -59 614 30 824 243 79 80 116 122 106 122 -3 0 3 10 14 23
20 21 58 90 63 112 1 6 7 19 13 30 6 11 12 22 13 25 0 3 3 12 6 20 21 56 42
190 42 260 0 17 -15 148 -19 170 -17 88 -102 269 -163 345 -4 6 -21 28 -37 50
-17 21 -70 79 -120 127 -113 111 -104 103 -205 183 -47 37 -95 76 -108 86 -12
11 -26 19 -31 19 -5 0 -11 3 -13 8 -1 4 -30 27 -63 51 -33 25 -61 48 -63 53
-2 4 -9 8 -15 8 -7 0 -27 14 -44 31 -18 16 -33 28 -33 25 0 -7 -47 34 -121
105 -38 37 -69 71 -69 78 0 6 -4 11 -8 11 -7 0 -24 34 -44 90 -5 14 -11 54
-13 90 -3 54 1 74 21 116 34 70 102 128 161 137 10 1 23 5 28 8 26 14 189 -4
213 -23 6 -6 12 -7 12 -2 0 5 4 4 8 -1 4 -6 19 -16 34 -24 42 -21 188 -170
188 -191 0 -5 4 -10 8 -10 5 0 28 -27 52 -60 40 -55 63 -72 72 -52 2 4 33 30
71 57 37 27 67 52 67 57 0 4 6 8 14 8 8 0 16 3 18 8 2 4 37 32 78 62 123 90
118 79 73 141 -21 30 -45 62 -53 73 -151 189 -271 296 -406 362 -41 20 -79 37
-86 38 -7 1 -18 4 -23 8 -6 3 -28 10 -50 14 -51 10 -55 11 -57 14 -7 5 -187
18 -191 14z"/>
<path d="M4707 6710 c-6 -3 -13 -12 -15 -20 -2 -8 -18 -46 -37 -85 -111 -231
-213 -449 -212 -455 0 -3 -12 -24 -26 -47 -15 -24 -25 -43 -22 -43 3 0 -7 -24
-22 -52 -15 -29 -28 -55 -28 -58 -1 -3 -18 -41 -39 -85 -21 -44 -59 -123 -83
-175 -25 -52 -70 -145 -99 -207 -30 -61 -54 -116 -54 -122 0 -6 -5 -11 -12
-11 -6 0 -9 -3 -5 -6 3 -3 -7 -31 -23 -63 -15 -31 -43 -87 -60 -126 -18 -38
-57 -122 -88 -185 -30 -63 -57 -121 -58 -129 -1 -8 -8 -17 -14 -21 -7 -4 -11
-10 -11 -14 2 -6 -22 -58 -97 -216 -20 -41 -36 -77 -37 -80 -1 -3 -25 -54 -55
-115 -29 -60 -54 -112 -54 -115 -1 -3 -23 -50 -50 -105 -26 -55 -55 -117 -63
-137 -8 -21 -19 -38 -24 -38 -5 0 -6 -7 -3 -15 4 -8 1 -15 -5 -15 -6 0 -11 -5
-11 -12 0 -7 -18 -48 -39 -93 -110 -227 -117 -244 -101 -247 8 -2 152 -4 320
-3 l305 0 35 71 c19 38 57 117 84 175 27 57 79 165 114 239 35 74 72 153 82
176 l18 40 135 0 c78 -1 133 3 130 8 -4 5 0 6 7 1 17 -10 480 -13 473 -3 -2 5
6 4 19 0 13 -4 121 -7 242 -7 l218 1 60 -125 c120 -252 165 -347 179 -378 8
-18 17 -33 21 -33 5 0 8 -11 8 -24 0 -13 4 -26 8 -28 5 -1 20 -28 34 -58 l25
-55 314 0 c193 1 313 5 312 10 -2 12 -54 127 -130 285 -31 63 -56 121 -56 128
0 6 -4 12 -9 12 -4 0 -8 4 -8 10 0 5 -20 52 -45 104 -25 52 -58 125 -75 161
-71 154 -90 195 -136 290 -26 55 -49 102 -49 105 -4 14 -27 63 -64 139 -22 46
-41 90 -41 98 0 7 -4 13 -10 13 -5 0 -10 4 -10 9 0 5 -10 30 -22 57 -12 27
-21 52 -20 57 1 4 -2 7 -8 7 -5 0 -10 9 -10 20 0 11 -4 20 -10 20 -5 0 -10 7
-10 15 0 8 -9 29 -19 47 -11 17 -18 35 -15 40 3 4 0 8 -5 8 -6 0 -11 5 -11 11
0 5 -17 47 -39 92 -21 45 -51 109 -67 142 -16 33 -29 62 -29 65 -1 3 -21 46
-44 95 -41 85 -75 158 -143 305 -16 36 -43 90 -59 121 -16 31 -29 64 -29 73 0
9 -3 16 -7 16 -5 0 -17 21 -27 48 -11 26 -45 101 -77 167 -63 134 -119 254
-139 300 l-13 31 -124 -1 c-68 0 -129 -2 -136 -5z"/>
<path d="M1397 6684 c-3 -3 -13 -7 -24 -9 -10 -2 -19 -4 -20 -4 -2 -1 14 -38
92 -216 7 -16 25 -56 39 -88 14 -32 26 -62 26 -67 0 -5 11 -30 25 -56 14 -26
25 -51 25 -55 0 -5 11 -32 24 -61 14 -29 46 -102 72 -163 25 -60 54 -128 64
-150 20 -48 33 -78 34 -85 1 -3 7 -15 14 -27 7 -13 9 -23 5 -23 -4 0 -2 -4 5
-9 7 -4 15 -14 16 -22 3 -15 19 -55 41 -104 7 -16 35 -79 61 -140 25 -60 54
-128 64 -150 10 -22 39 -89 64 -150 26 -60 54 -122 62 -137 8 -15 14 -29 14
-30 -2 -5 18 -54 45 -114 14 -30 25 -57 25 -59 0 -2 11 -28 24 -57 47 -105 68
-153 70 -163 5 -18 46 -110 63 -140 9 -16 16 -30 14 -30 -4 0 15 -48 44 -111
14 -30 25 -57 25 -59 0 -2 13 -33 28 -67 16 -35 40 -90 53 -123 13 -33 27 -62
32 -63 4 -2 7 -10 7 -18 0 -8 4 -22 9 -32 5 -9 21 -46 36 -82 15 -36 38 -88
51 -117 l23 -51 106 0 105 -1 15 35 c8 19 15 36 15 39 1 4 51 118 80 180 15
32 46 104 93 215 25 58 57 131 71 162 14 31 26 62 26 67 0 6 5 11 10 11 6 0 9
3 8 8 -4 10 44 126 55 133 5 3 8 8 7 10 -2 4 9 33 33 92 9 20 16 38 16 40 0 1
27 61 60 134 32 72 56 134 53 137 -3 3 -1 6 5 6 9 0 17 15 28 55 1 6 19 45 39
88 20 43 36 80 36 83 0 2 16 38 35 80 19 41 35 78 35 81 0 2 14 34 30 70 17
35 30 70 30 78 0 7 4 15 8 17 4 2 23 39 41 83 19 44 41 96 49 115 9 19 16 37
17 40 1 3 8 19 15 35 7 17 14 32 15 35 20 53 29 70 36 70 6 0 9 6 8 13 -1 6 3
23 8 37 15 35 91 206 115 260 11 24 21 49 22 56 1 7 8 19 15 28 7 9 11 16 7
16 -4 0 1 15 11 33 9 17 18 34 18 37 0 3 9 23 19 45 33 71 66 149 71 165 0 3
11 25 22 50 12 25 23 52 25 60 2 8 7 18 13 22 5 4 -15 6 -45 5 -30 -2 -67 0
-82 4 -16 4 -28 4 -28 1 0 -9 -135 -6 -149 3 -6 3 -11 3 -11 -2 0 -4 -55 -8
-122 -8 -75 0 -123 -4 -124 -10 -1 -10 -33 -85 -60 -139 -8 -16 -14 -35 -14
-43 0 -7 -4 -13 -10 -13 -5 0 -10 -8 -10 -18 0 -10 -5 -23 -12 -30 -7 -7 -9
-12 -5 -12 4 0 -2 -17 -13 -37 -18 -36 -58 -128 -60 -138 -1 -2 -15 -35 -32
-72 -48 -108 -72 -163 -109 -248 -18 -44 -38 -83 -44 -87 -5 -4 -7 -8 -3 -8 6
0 -11 -42 -71 -175 -10 -22 -38 -85 -61 -140 -23 -55 -46 -104 -50 -110 -5 -5
-9 -14 -10 -20 -3 -15 -17 -49 -39 -98 -10 -23 -33 -76 -51 -117 -18 -41 -43
-97 -55 -125 -12 -27 -42 -95 -65 -150 -23 -55 -51 -120 -62 -145 l-21 -45
-21 45 c-12 25 -30 66 -40 90 -10 25 -23 56 -29 70 -6 14 -11 27 -12 30 -2 5
-27 62 -55 125 -10 22 -37 85 -60 140 -23 55 -48 113 -56 129 -8 16 -14 35
-14 43 0 7 -4 13 -8 13 -4 0 -14 20 -21 45 -7 25 -18 45 -24 45 -6 0 -8 3 -4
6 3 4 -2 23 -13 44 -11 21 -16 40 -13 44 4 3 1 6 -5 6 -7 0 -12 7 -12 15 0 8
-5 23 -10 33 -8 14 -50 106 -55 122 -1 3 -6 16 -12 30 -64 150 -80 190 -75
190 4 0 1 4 -6 9 -7 4 -15 14 -16 22 -2 8 -13 37 -26 64 -12 28 -23 56 -23 63
0 6 -4 12 -9 12 -4 0 -8 6 -8 14 0 8 -7 27 -15 43 -18 34 -55 120 -55 127 0 3
-12 31 -26 63 -15 32 -32 72 -39 88 -7 17 -22 50 -32 75 -23 51 -36 83 -37 90
-1 3 -7 15 -14 27 -11 19 -20 21 -106 21 -51 0 -98 2 -104 6 -6 3 -13 3 -15
-1 -6 -9 -59 -9 -74 0 -6 4 -13 4 -16 1 -8 -9 -171 -9 -184 -1 -5 4 -13 4 -16
1z"/>
<path d="M6002 3393 c-16 -17 -16 -24 0 -34 33 -22 59 7 29 33 -14 12 -19 12
-29 1z"/>
<path d="M2120 3379 c0 -24 27 -36 43 -20 8 8 8 14 -1 23 -20 20 -42 18 -42
-3z"/>
<path d="M5499 3397 c-6 -13 -5 -38 1 -42 14 -9 41 7 38 23 -2 12 -35 27 -39
19z"/>
<path d="M5896 3393 c-3 -3 -6 -24 -6 -45 0 -31 -3 -38 -20 -38 -11 0 -20 -4
-20 -10 0 -9 14 -14 33 -11 6 1 13 -164 8 -192 -1 -5 6 -7 15 -5 12 2 17 14
18 36 1 17 -3 32 -7 32 -4 0 -3 9 3 19 6 13 7 22 0 26 -6 3 -6 15 0 29 5 15 5
27 -3 35 -8 8 -7 11 6 12 36 3 40 4 45 17 2 7 -6 12 -22 12 -13 0 -28 5 -31
10 -3 6 -2 10 3 10 10 0 3 58 -8 65 -4 2 -10 2 -14 -2z"/>
<path d="M6753 3384 c-15 -7 -24 -13 -19 -13 5 -1 2 -9 -6 -18 -8 -10 -14 -22
-13 -28 2 -22 17 -55 24 -55 4 0 28 -20 54 -43 35 -33 45 -50 42 -66 -10 -54
-49 -66 -87 -28 -28 26 -48 32 -48 14 0 -21 42 -55 73 -61 39 -7 73 11 87 45
21 50 4 83 -79 149 -35 28 -41 64 -13 79 9 5 20 11 23 13 4 1 16 -5 27 -15 11
-10 29 -17 39 -15 16 3 15 6 -10 28 -32 28 -55 31 -94 14z"/>
<path d="M1835 3373 c4 -10 8 -24 8 -30 0 -7 4 -13 9 -13 5 0 7 -4 3 -9 -3 -5
3 -17 12 -27 10 -10 16 -18 13 -18 -6 -1 24 -80 55 -143 22 -47 23 -48 33 -23
13 31 19 52 20 64 0 5 5 12 12 16 6 4 13 13 14 21 4 17 58 146 73 172 2 4 -3
7 -11 7 -13 0 -56 -65 -62 -95 -4 -20 -63 -140 -64 -128 0 7 -10 36 -23 65
-13 29 -32 73 -42 98 -11 25 -24 48 -30 52 -18 13 -27 9 -20 -9z"/>
<path d="M2506 3350 c2 -33 -1 -40 -17 -40 -10 0 -19 -7 -19 -15 0 -8 3 -14 8
-14 26 4 30 -5 28 -86 -2 -88 6 -122 23 -96 5 7 8 51 7 97 -1 82 1 89 32 85 6
-1 12 5 12 14 0 14 -11 19 -36 16 -6 -1 -9 15 -7 39 2 33 0 40 -15 40 -13 0
-17 -8 -16 -40z"/>
<path d="M4460 3382 c0 -5 -22 -58 -50 -116 -27 -58 -50 -109 -49 -112 0 -4
-4 -10 -10 -14 -6 -3 -13 -16 -16 -28 -7 -39 23 -24 46 24 23 45 50 70 63 57
3 -4 25 -7 48 -7 40 -1 43 -4 67 -48 14 -27 31 -48 38 -48 7 0 13 2 13 5 0 2
-22 51 -48 107 -27 57 -54 117 -61 135 -14 33 -41 64 -41 45z m36 -105 c21
-63 21 -62 -15 -60 -59 3 -65 9 -42 42 12 16 21 36 21 45 0 26 24 8 36 -27z"/>
<path d="M2284 3309 c-3 -5 -9 -7 -13 -4 -5 2 -20 -9 -35 -25 -14 -17 -24 -30
-22 -30 2 0 0 -18 -4 -39 -5 -30 -3 -46 10 -66 16 -24 62 -63 68 -57 1 1 4 2
7 1 28 -6 58 1 88 19 37 21 50 52 22 52 -8 0 -15 -5 -15 -10 0 -11 -46 -34
-67 -33 -36 1 -44 5 -67 29 -39 42 -26 51 70 50 47 -1 88 1 92 4 25 19 -8 92
-47 105 -36 11 -81 13 -87 4z m94 -47 c32 -31 21 -37 -64 -37 -78 0 -92 14
-43 44 42 25 74 23 107 -7z"/>
<path d="M2700 3311 c0 -3 -12 -11 -26 -18 -22 -10 -25 -10 -20 3 3 9 -1 14
-13 14 -16 0 -17 -10 -17 -104 1 -58 5 -108 9 -112 14 -15 23 15 21 68 -3 74
11 105 53 119 31 10 37 9 57 -10 18 -18 21 -33 21 -99 1 -61 4 -77 15 -77 12
0 15 17 15 88 -1 74 -4 90 -21 108 -19 19 -94 35 -94 20z"/>
<path d="M2939 3308 c-28 -11 -68 -54 -70 -77 -7 -86 25 -128 106 -144 11 -2
37 5 58 15 26 13 36 15 35 6 -2 -7 4 -13 12 -13 20 0 24 211 3 219 -12 5 -17
-6 -14 -26 0 -5 -3 -8 -9 -8 -5 0 -10 4 -10 9 0 21 -72 33 -111 19z m89 -36
c2 -7 7 -10 12 -7 12 7 30 -50 24 -80 -2 -14 -13 -34 -23 -44 -22 -22 -68 -35
-76 -21 -4 6 -10 8 -14 5 -13 -7 -54 42 -55 67 -3 30 22 74 48 86 28 12 79 9
84 -6z"/>
<path d="M3164 3312 c-6 -4 -10 -52 -10 -115 0 -90 3 -107 15 -105 12 2 16 19
17 68 1 36 2 70 4 75 1 6 2 13 1 17 0 4 13 15 30 24 41 21 78 4 80 -35 1 -14
2 -53 3 -85 0 -38 6 -61 14 -63 6 -3 12 1 13 9 0 7 2 40 3 73 2 33 4 61 6 63
1 1 3 6 4 12 2 16 42 39 65 37 33 -2 45 -33 46 -117 0 -58 3 -75 15 -78 15 -2
17 27 11 156 -1 13 -12 34 -25 47 -29 28 -79 27 -109 -4 -20 -19 -20 -19 -37
1 -22 28 -81 29 -112 2 -19 -17 -21 -17 -15 -2 7 19 -4 30 -19 20z"/>
<path d="M3577 3296 c-13 -12 -29 -31 -36 -44 -13 -24 -12 -102 1 -102 4 0 8
-5 8 -11 0 -27 34 -44 84 -43 76 3 82 5 100 36 16 26 16 28 1 28 -9 0 -24 -9
-33 -19 -18 -21 -59 -30 -79 -18 -7 5 -13 5 -13 1 0 -4 -9 1 -20 11 -11 10
-20 24 -20 32 0 7 -5 13 -11 13 -5 0 -8 4 -5 9 3 5 47 8 97 7 50 0 95 2 101 5
13 8 -13 68 -39 91 -31 28 -106 30 -136 4z m93 -18 c0 -5 4 -7 9 -3 9 5 41
-31 41 -46 0 -7 -148 -5 -155 3 -3 3 5 16 17 29 23 24 88 37 88 17z"/>
<path d="M3823 3308 c-13 -6 -23 -16 -24 -22 0 -6 -2 -18 -4 -27 -4 -21 13
-41 58 -68 41 -25 46 -40 19 -64 -16 -14 -21 -15 -45 -2 -32 17 -50 -1 -22
-22 24 -16 66 -17 89 0 35 25 19 107 -21 107 -7 0 -13 5 -13 10 0 6 -7 10 -15
10 -8 0 -15 4 -15 9 0 5 -3 16 -6 24 -6 17 36 31 50 17 15 -15 36 -12 36 4 0
10 -56 41 -64 35 -1 0 -11 -5 -23 -11z"/>
<path d="M4020 3302 c-61 -29 -78 -90 -45 -165 11 -26 65 -51 104 -48 38 2 91
35 91 57 0 19 -13 18 -40 -6 -13 -11 -28 -20 -34 -21 -6 0 -20 -2 -30 -4 -21
-4 -94 61 -82 73 4 4 47 7 95 8 49 1 93 4 99 8 24 14 -36 103 -71 107 -7 1
-22 3 -34 4 -12 1 -36 -5 -53 -13z m106 -38 c15 -13 24 -27 20 -31 -10 -10
-156 -11 -156 -1 0 5 8 17 18 27 34 36 79 38 118 5z"/>
<path d="M4659 3299 c-10 -10 -19 -27 -19 -38 0 -26 35 -68 64 -75 32 -8 40
-42 14 -61 -18 -12 -25 -12 -48 0 -26 13 -40 11 -40 -5 0 -4 14 -14 31 -23 38
-18 82 -5 97 28 14 31 -11 76 -51 95 -31 15 -51 59 -28 61 6 1 17 2 24 3 6 1
19 -4 28 -11 14 -12 17 -12 22 1 14 35 -63 56 -94 25z"/>
<path d="M4840 3313 c-26 -11 -39 -30 -37 -55 2 -28 18 -46 63 -72 23 -14 30
-24 26 -38 -7 -28 -43 -39 -64 -21 -16 14 -18 14 -24 -2 -9 -22 11 -35 53 -35
24 0 37 7 50 27 26 40 24 51 -14 81 -66 50 -75 61 -61 76 16 17 39 17 59 -1
14 -12 17 -12 22 1 10 24 -41 51 -73 39z"/>
<path d="M5025 3306 c-11 -6 -23 -16 -28 -23 -4 -7 -13 -18 -20 -25 -8 -7 -13
-29 -12 -48 1 -40 24 -102 35 -95 4 3 10 -2 14 -10 3 -8 12 -12 20 -9 8 3 17
1 20 -4 4 -6 21 -7 43 -2 87 20 120 126 60 190 -16 17 -36 30 -45 31 -10 1
-28 2 -42 3 -14 2 -35 -2 -45 -8z m87 -28 c54 -20 61 -120 10 -143 -12 -5 -22
-13 -22 -17 0 -22 -99 21 -101 45 -1 6 -3 25 -5 40 -2 18 4 35 17 48 10 10 16
19 12 20 -12 1 29 16 47 17 8 0 27 -4 42 -10z"/>
<path d="M5294 3301 c-86 -39 -87 -153 -2 -197 51 -27 97 -20 157 23 2 1 -2 9
-9 18 -11 14 -14 13 -27 -5 -8 -12 -21 -19 -29 -16 -8 3 -14 1 -14 -4 0 -10
-22 -7 -63 9 -37 14 -58 63 -44 101 20 54 90 72 145 38 35 -22 46 -20 37 4
-15 39 -95 54 -151 29z"/>
<path d="M5511 3310 c-8 -4 -12 -17 -8 -29 3 -12 1 -21 -5 -21 -5 0 -6 -5 -3
-11 11 -17 13 -59 3 -65 -4 -3 -5 -11 -1 -17 4 -6 6 -26 5 -44 -2 -22 2 -33
11 -33 8 0 14 8 15 18 3 39 2 205 -1 208 -1 2 -9 -1 -16 -6z"/>
<path d="M5642 3303 c-19 -9 -37 -24 -40 -32 -3 -9 -10 -19 -14 -22 -8 -5 -10
-34 -6 -82 1 -10 16 -31 35 -47 39 -34 86 -39 133 -15 27 14 30 14 30 -1 0 -8
6 -14 13 -12 15 6 20 215 5 224 -5 3 -12 -3 -15 -15 -5 -19 -7 -19 -28 -5 -36
23 -76 26 -113 7z m112 -44 c18 -21 25 -40 23 -62 -4 -43 -12 -55 -50 -71 -42
-17 -83 -3 -107 36 -51 84 71 172 134 97z"/>
<path d="M6155 3310 c-30 -12 -65 -54 -71 -85 -3 -15 -5 -30 -6 -34 -1 -3 4
-18 10 -32 35 -84 161 -94 204 -16 14 26 20 107 8 107 -5 0 -11 8 -14 18 -11
34 -88 59 -131 42z m80 -35 c31 -14 43 -36 41 -77 -3 -54 -52 -92 -98 -78 -5
1 -12 3 -17 4 -17 2 -60 60 -53 70 7 11 8 16 10 49 1 9 7 17 13 17 6 0 17 6
25 14 15 15 45 16 79 1z"/>
<path d="M6440 3312 c-8 -3 -23 -11 -32 -20 -16 -14 -18 -13 -18 2 0 11 -6 16
-17 14 -16 -3 -18 -16 -18 -103 -1 -111 0 -116 18 -109 9 3 13 28 14 74 1 77
19 107 68 116 55 10 68 -23 65 -164 -1 -24 3 -33 12 -30 9 4 13 31 13 96 0 86
-2 93 -25 109 -25 18 -54 23 -80 15z"/>
<path d="M6978 3301 c-41 -27 -51 -42 -58 -81 -10 -56 26 -117 76 -126 63 -12
134 16 134 53 0 18 -13 16 -40 -7 -13 -11 -28 -20 -34 -21 -6 0 -19 -2 -29 -4
-21 -4 -73 37 -80 64 -4 17 2 19 95 17 55 -1 101 0 103 2 2 2 -2 18 -7 35 -12
34 -51 76 -71 78 -7 1 -24 2 -39 3 -16 2 -38 -4 -50 -13z m98 -29 c12 -6 24
-20 27 -31 4 -17 -1 -19 -69 -17 -41 1 -74 5 -74 9 3 48 62 68 116 39z"/>
<path d="M7253 3303 c-18 -9 -29 -11 -31 -4 -2 6 -9 11 -16 11 -9 0 -12 -30
-12 -110 0 -83 4 -110 13 -110 14 0 14 -1 17 88 1 52 5 66 27 86 32 30 79 30
94 -1 6 -12 11 -55 10 -96 -1 -62 2 -74 15 -72 12 2 15 18 14 89 -1 74 -5 91
-22 108 -25 25 -73 30 -109 11z"/>
<path d="M7504 3310 c-26 -10 -66 -59 -58 -71 3 -5 1 -9 -4 -9 -5 0 -8 -10 -7
-22 3 -38 17 -78 26 -78 5 0 9 -7 9 -16 0 -8 5 -12 11 -8 6 3 14 1 18 -5 21
-34 141 0 149 42 4 20 -11 22 -30 4 -18 -19 -50 -34 -65 -31 -7 1 -20 2 -28 3
-22 1 -65 50 -59 65 4 9 29 13 82 13 110 1 112 1 112 21 0 28 -38 81 -62 87
-50 11 -74 12 -94 5z m94 -40 c12 -8 22 -21 24 -29 2 -12 -13 -15 -74 -15 -43
-1 -78 2 -78 5 0 4 9 17 19 31 23 28 74 32 109 8z"/>
<path d="M7761 3299 c-65 -39 -77 -126 -25 -178 13 -13 24 -20 24 -16 0 4 6 3
13 -3 11 -10 54 -17 70 -12 4 1 10 3 15 4 31 7 51 19 56 33 10 26 0 27 -44 5
-34 -17 -47 -18 -73 -10 -45 15 -66 45 -62 87 7 69 80 97 152 58 50 -27 54 3
4 31 -38 22 -95 22 -130 1z"/>
<path d="M8040 3310 c0 -5 -9 -12 -21 -15 -26 -9 -50 -65 -47 -111 3 -52 54
-94 113 -94 25 0 45 4 45 9 0 5 9 11 20 14 13 3 20 0 20 -9 0 -20 30 -17 31 4
1 9 0 22 -1 27 -6 25 -6 73 1 103 4 18 3 32 -2 32 -6 0 -6 8 0 19 9 15 7 18
-12 17 -12 -1 -21 -7 -19 -14 3 -16 -8 -15 -22 3 -12 15 -106 28 -106 15z
m106 -51 c38 -36 30 -107 -14 -126 -38 -16 -54 -18 -80 -9 -23 8 -71 86 -52
86 6 0 8 4 5 10 -3 5 1 20 9 32 9 12 16 19 16 15 0 -5 7 -1 16 8 21 21 69 13
100 -16z"/>
<path d="M2129 3306 c-2 -2 -3 -52 -1 -110 2 -76 7 -106 16 -106 7 0 12 14 11
38 0 20 1 41 4 46 6 14 7 76 0 76 -3 0 -4 14 -3 30 2 26 -13 40 -27 26z"/>
<path d="M6004 3203 c1 -76 5 -108 14 -111 7 -2 12 6 13 20 5 176 4 198 -12
198 -13 0 -16 -16 -15 -107z"/>
</g>
</svg>
